<svg width="300" height="300" viewBox="0 0 300 300" fill="none" xmlns="http://www.w3.org/2000/svg">
<circle cx="150" cy="150" r="150" fill="#090909"/>
<g clip-path="url(#clip0_77_64)">
<path d="M79.9886 144H86.8286V108H73.892L38.0198 144H46.595L52.337 138.24H79.9868V144H79.9886ZM58.3022 132.255L75.6326 114.858H79.9886V132.255H58.3022ZM148.286 114.196H167.42L173.601 108H146.389C146.389 108 136.786 109.166 136.786 118.377C136.786 118.377 136.768 118.607 136.773 118.994V133.004C136.773 133.393 136.786 133.623 136.786 133.623C136.786 142.834 146.389 144 146.389 144H173.601L167.481 137.799H148.286C147.059 137.756 145.896 137.239 145.04 136.358C144.185 135.477 143.704 134.299 143.698 133.07C143.698 133.047 143.698 133.027 143.698 133.004V118.994C143.698 118.973 143.698 118.953 143.698 118.93C143.704 117.701 144.185 116.523 145.04 115.642C145.896 114.761 147.059 114.244 148.286 114.201M121.209 132.131C121.209 132.131 130.812 130.964 130.812 121.754C130.812 121.754 130.83 121.523 130.824 121.135V118.994C130.824 118.877 130.824 118.775 130.824 118.688V118.667C130.824 118.487 130.812 118.377 130.812 118.377C130.819 115.994 129.997 113.683 128.486 111.84C126.975 109.997 124.87 108.737 122.532 108.277C122.097 108.157 121.655 108.064 121.209 108H94.8278V144H101.679V114.201H119.319C120.502 114.247 121.626 114.731 122.472 115.559C123.319 116.387 123.827 117.501 123.898 118.683V121.14C123.898 121.163 123.898 121.183 123.898 121.207C123.892 122.435 123.411 123.613 122.556 124.494C121.701 125.376 120.539 125.892 119.311 125.935H104.852L122.922 144H131.944L120.042 132.131H121.209ZM218.977 133.031V118.849C218.977 118.568 218.967 118.409 218.967 118.409C218.967 109.199 209.364 108.036 209.364 108.036H186.46C186.46 108.036 176.857 109.199 176.857 118.409C176.843 118.615 176.839 118.822 176.847 119.029V132.998C176.839 133.205 176.843 133.412 176.857 133.618C176.857 142.828 186.46 143.998 186.46 143.998H209.36C209.36 143.998 218.963 142.828 218.963 133.618C218.963 133.618 218.979 133.402 218.974 133.031M212.051 119.029V132.998C212.051 133.02 212.051 133.042 212.051 133.061C212.046 134.29 211.565 135.469 210.71 136.351C209.856 137.234 208.692 137.751 207.465 137.795H188.358C187.13 137.751 185.966 137.234 185.111 136.351C184.256 135.469 183.775 134.29 183.769 133.061C183.769 133.042 183.769 133.02 183.769 132.998V119.029C183.769 119.007 183.769 118.987 183.769 118.966C183.775 117.737 184.256 116.558 185.111 115.676C185.966 114.794 187.13 114.277 188.358 114.233H207.468C208.699 114.276 209.866 114.795 210.722 115.68C211.578 116.565 212.058 117.748 212.06 118.98C212.06 119.002 212.06 119.021 212.06 119.043L212.051 119.029ZM226.311 144H233.374V119.88L257.512 144H262.978V108.049H255.877V132.768L231.372 108.043H222.95L226.311 111.793V144Z" fill="#F8F7F4"/>
</g>
<path d="M231.65 156.6L243.201 170.262L254.75 156.6H258.875H263L247.006 174.6L262.793 192.6H258.05H254.638L243.201 178.8L231.806 192.6H223.651L239.394 174.6L223.4 156.6H227.525H231.65Z" fill="#F8F7F4"/>
<path d="M167.277 186.391C173.9 192.6 172.153 190.79 173.9 192.59C172.616 192.597 167.028 192.608 166.257 192.59L141.731 192.6C138.261 192.575 137 189 137 187.2V156.6L144.598 162.9V186.391H167.277Z" fill="#F8F7F4"/>
<g clip-path="url(#clip1_77_64)">
<path d="M183.88 181.345V162.642L176.6 156.6V183.2C176.6 183.2 177.971 192.587 188.793 192.587C188.793 192.587 189.064 192.604 189.518 192.599H205.979C206.436 192.599 206.707 192.587 206.707 192.587C217.529 192.587 218.9 183.2 218.9 183.2V156.6L211.614 162.582V181.345C211.563 182.545 210.956 183.682 209.92 184.518C208.885 185.353 207.5 185.825 206.058 185.83C206.03 185.83 206.007 185.83 205.979 185.83H189.518C189.493 185.83 189.47 185.83 189.442 185.83C188 185.825 186.615 185.353 185.58 184.518C184.544 183.682 183.937 182.545 183.886 181.345" fill="#F8F7F4"/>
</g>
<defs>
<clipPath id="clip0_77_64">
<rect width="225" height="36" fill="white" transform="translate(38 108)"/>
</clipPath>
<clipPath id="clip1_77_64">
<rect width="42.3" height="36" fill="white" transform="translate(176.6 156.6)"/>
</clipPath>
</defs>
</svg>
